<svg id="Layer_1" data-name="Layer 1" xmlns="http://www.w3.org/2000/svg" viewBox="0 0 50 50"><defs><style>.cls-1{fill:#666;}</style></defs><path class="cls-1" d="M35.79,16.31a.2.2,0,0,1-.19-.12A18.05,18.05,0,0,0,23,5.46a.2.2,0,0,1-.15-.23.19.19,0,0,1,.23-.14A18.39,18.39,0,0,1,36,16a.19.19,0,0,1-.1.25Z"/><path class="cls-1" d="M32.57,35.77a2.48,2.48,0,0,0,1.16-2,.19.19,0,0,0-.18-.18,2.55,2.55,0,0,0-1.39.44,16.57,16.57,0,0,0-3.68,3.35h0a9.34,9.34,0,0,1-1.71,1.47,8.67,8.67,0,0,0,2.15-5.58.66.66,0,0,0-.25-.55.54.54,0,0,0-.36-.07h0l-.14,0A2.1,2.1,0,0,0,27,34a40.45,40.45,0,0,0-1.76,5.68,13.31,13.31,0,0,1-2.31.8l-.65.14a5.08,5.08,0,0,0,1.19-.93,5.82,5.82,0,0,0,1.14-2.17,4.71,4.71,0,0,0,.23-2.28c-.06-.31-.21-.5-.43-.53h0a.54.54,0,0,0-.43.14,6.14,6.14,0,0,0-2,2.89l-.27.73a11.24,11.24,0,0,1-1.09,2.36.06.06,0,0,0,0,0,23,23,0,0,1-4.16,0A18.06,18.06,0,0,1,.93,24.07a.19.19,0,0,0-.2-.18.2.2,0,0,0-.18.2,18.45,18.45,0,0,0,15.9,17.2,25.17,25.17,0,0,0,3.44.06,17.89,17.89,0,0,0,2.26-.28l.49.56a20.24,20.24,0,0,0,4,3.78.67.67,0,0,0,.37.12.35.35,0,0,0,.14,0h0c.11-.05.24-.19.22-.5a3.66,3.66,0,0,0-1.25-2.45,9.3,9.3,0,0,0-2.31-1.44c-.21-.1-.42-.19-.64-.27a13,13,0,0,0,2.61-1h0a14.06,14.06,0,0,0,3.7,1.23,8.27,8.27,0,0,0,2.19.21A4,4,0,0,0,33,41h0l.08-.06h0a.05.05,0,0,0,0,0v0h0s0,0,0-.07v0a.18.18,0,0,0,0-.07h0a9.25,9.25,0,0,0-6.31-1.38,9.34,9.34,0,0,0,1.92-1.59A12.2,12.2,0,0,0,32.57,35.77Zm-8-.09a4.69,4.69,0,0,1-.27,1.76,5.44,5.44,0,0,1-1.06,2,4.28,4.28,0,0,1-1,.78A7.35,7.35,0,0,0,24.52,35.68Zm-.39.08a7,7,0,0,1-2,4.1,9.07,9.07,0,0,0,.85-1.58A25.35,25.35,0,0,1,24.13,35.76Zm-2,2.87c.09-.24.18-.49.28-.73a6.48,6.48,0,0,1,1.47-2.43,26.07,26.07,0,0,0-1.26,2.66,7.62,7.62,0,0,1-.95,1.7C21.81,39.44,22,39,22.1,38.63Zm10.23-3.15A10.63,10.63,0,0,1,29.74,37l3.5-2.58A2.93,2.93,0,0,1,32.33,35.48Zm0-1.11a3.45,3.45,0,0,1,.7-.33l-3,2.18A11.49,11.49,0,0,1,32.35,34.37ZM28,33.86a12.87,12.87,0,0,1-1.77,4.4ZM26.49,38.6a12.23,12.23,0,0,0,2-5.51.53.53,0,0,1,.05.23A8.17,8.17,0,0,1,26.49,38.6Zm.87-4.42a2.8,2.8,0,0,1,.42-.76L26.46,36.7A24.32,24.32,0,0,1,27.36,34.18Zm-3.73,8a31.15,31.15,0,0,1,2.58,2.46A19.33,19.33,0,0,1,23.63,42.17Zm.23-.31a8.5,8.5,0,0,1,2.74,2.63A31.83,31.83,0,0,0,23.86,41.86ZM26.75,44a8.38,8.38,0,0,0-2-2,6.11,6.11,0,0,1,1.15.82A3.71,3.71,0,0,1,26.75,44Zm2.83-3.28A16.49,16.49,0,0,1,27.1,40a32.53,32.53,0,0,1,5.14.83A7,7,0,0,1,29.58,40.73Zm1.91-.44a34.56,34.56,0,0,0-4.3-.63A9.4,9.4,0,0,1,31.49,40.29Z"/><path class="cls-1" d="M11.11,22.57a1.34,1.34,0,0,1-.44,1,1.56,1.56,0,0,1-1.09.4H7.5v-4.9H9.43a1.53,1.53,0,0,1,1.06.39,1.27,1.27,0,0,1,.43,1,1.2,1.2,0,0,1-.46,1A1.21,1.21,0,0,1,11.11,22.57ZM8.47,20v1.08h1a.52.52,0,0,0,.53-.54A.52.52,0,0,0,9.43,20Zm1.11,3.1a.56.56,0,0,0,.57-.59.55.55,0,0,0-.57-.57H8.47v1.16Z"/><path class="cls-1" d="M14.23,23.06H16.1V24H13.27v-4.9h1Z"/><path class="cls-1" d="M19.15,23.06h2.06V24h-3v-4.9h3V20h-2v1H21V22H19.15Z"/><path class="cls-1" d="M23.17,22.88l.83-.49a1.1,1.1,0,0,0,1.13.75c.54,0,.78-.22.78-.52a.45.45,0,0,0-.23-.4,3.66,3.66,0,0,0-.83-.31,3,3,0,0,1-1-.46,1.17,1.17,0,0,1-.46-1,1.28,1.28,0,0,1,.47-1.06A1.69,1.69,0,0,1,25,19a1.88,1.88,0,0,1,1.75,1.1l-.82.47a1,1,0,0,0-.93-.63c-.4,0-.65.2-.65.49a.49.49,0,0,0,.19.38,3,3,0,0,0,.74.3l.34.12.31.11a1.28,1.28,0,0,1,.31.15,1.51,1.51,0,0,1,.47.44,1.35,1.35,0,0,1,.18.69,1.33,1.33,0,0,1-.5,1.08,2,2,0,0,1-1.28.4A1.92,1.92,0,0,1,23.17,22.88Z"/><path class="cls-1" d="M28.64,22.88l.83-.49a1.09,1.09,0,0,0,1.12.75c.54,0,.79-.22.79-.52a.45.45,0,0,0-.23-.4,3.87,3.87,0,0,0-.83-.31,3,3,0,0,1-1-.46,1.16,1.16,0,0,1-.47-1,1.31,1.31,0,0,1,.47-1.06,1.71,1.71,0,0,1,1.14-.4,1.86,1.86,0,0,1,1.75,1.1l-.81.47a1,1,0,0,0-.94-.63c-.4,0-.64.2-.64.49a.46.46,0,0,0,.19.38,3,3,0,0,0,.74.3l.34.12.31.11a1.28,1.28,0,0,1,.31.15,1.38,1.38,0,0,1,.46.44,1.26,1.26,0,0,1,.18.69,1.32,1.32,0,0,1-.49,1.08,2,2,0,0,1-1.28.4A1.9,1.9,0,0,1,28.64,22.88Z"/><path class="cls-1" d="M35.44,23.06H37.5V24h-3v-4.9h3V20h-2v1h1.85V22H35.44Z"/><path class="cls-1" d="M41.66,19.09a2.26,2.26,0,0,1,1.68.7,2.58,2.58,0,0,1,0,3.49,2.24,2.24,0,0,1-1.68.71H39.71v-4.9Zm0,4a1.37,1.37,0,0,0,1-.42,1.56,1.56,0,0,0,.4-1.1,1.55,1.55,0,0,0-.4-1.1,1.34,1.34,0,0,0-1-.43h-1v3Z"/><path class="cls-1" d="M8.5,28h.36V29.8H8.59L7.8,28.68V29.8H7.43V28h.28l.79,1.13Z"/><path class="cls-1" d="M12,29.8l-.12-.33h-.73L11,29.8h-.39L11.25,28h.45l.65,1.84Zm-.73-.67h.5l-.25-.75Z"/><path class="cls-1" d="M14.09,28h.37V29.8h-.37Z"/><path class="cls-1" d="M16.73,29.46h.7v.34H16.36V28h.37Z"/><path class="cls-1" d="M21.61,29.56a1,1,0,0,1,0-1.36.94.94,0,0,1,.69-.28.92.92,0,0,1,.79.44l-.32.18a.5.5,0,0,0-.47-.26.57.57,0,0,0-.44.17.57.57,0,0,0-.16.43.61.61,0,0,0,.16.44.6.6,0,0,0,.44.17.51.51,0,0,0,.47-.26l.32.18a.93.93,0,0,1-.79.43A.9.9,0,0,1,21.61,29.56Z"/><path class="cls-1" d="M25.24,29.46h.7v.34H24.88V28h.36Z"/><path class="cls-1" d="M27.86,29.67a.6.6,0,0,1-.19-.47V28H28v1.21a.34.34,0,0,0,.68,0V28h.37V29.2a.6.6,0,0,1-.2.47.77.77,0,0,1-.51.17A.78.78,0,0,1,27.86,29.67Z"/><path class="cls-1" d="M32.32,29.27a.48.48,0,0,1-.16.38.59.59,0,0,1-.41.15H31V28h.72a.57.57,0,0,1,.4.15.47.47,0,0,1,.16.37.44.44,0,0,1-.17.37A.45.45,0,0,1,32.32,29.27Zm-1-1v.41h.36a.2.2,0,0,0,.2-.21.19.19,0,0,0-.2-.2Zm.42,1.16a.21.21,0,0,0,.21-.21.21.21,0,0,0-.21-.22h-.42v.43Z"/><path class="cls-1" d="M37.89,29.7l-.29.17-.17-.19a.78.78,0,0,1-.49.16.72.72,0,0,1-.47-.15.49.49,0,0,1-.18-.4.62.62,0,0,1,.31-.53.53.53,0,0,1-.09-.3.53.53,0,0,1,.16-.39.6.6,0,0,1,.42-.15.62.62,0,0,1,.59.4l-.32.18a.27.27,0,0,0-.27-.22.2.2,0,0,0-.22.19c0,.1.05.17.15.28l.4.43a1.07,1.07,0,0,0,.09-.3l.3.17a1.11,1.11,0,0,1-.16.39Zm-.68-.26-.4-.43h0a.3.3,0,0,0-.14.26c0,.15.1.25.3.25A.43.43,0,0,0,37.21,29.44Z"/><path class="cls-1" d="M41.81,29.39l.31-.19a.41.41,0,0,0,.42.29c.21,0,.3-.09.3-.2a.18.18,0,0,0-.09-.15,1.1,1.1,0,0,0-.31-.12,1.12,1.12,0,0,1-.38-.17.45.45,0,0,1-.18-.38.5.5,0,0,1,.18-.4.64.64,0,0,1,.43-.15.71.71,0,0,1,.66.42l-.31.17a.37.37,0,0,0-.35-.23c-.15,0-.24.07-.24.18a.15.15,0,0,0,.07.14.84.84,0,0,0,.28.12l.12,0,.12,0a.33.33,0,0,1,.12.05.65.65,0,0,1,.17.16.54.54,0,0,1,.07.27.47.47,0,0,1-.19.4.73.73,0,0,1-.48.15A.71.71,0,0,1,41.81,29.39Z"/><path class="cls-1" d="M45.68,28a.6.6,0,0,1,.44.18.6.6,0,0,1,0,.88.6.6,0,0,1-.44.18h-.33v.6H45V28Zm0,.9a.28.28,0,0,0,0-.56h-.33v.56Z"/><path class="cls-1" d="M49.11,29.8,49,29.47h-.73l-.11.33h-.39L48.4,28h.45l.65,1.84Zm-.73-.67h.5l-.25-.75Z"/><path class="cls-1" d="M.66,19l0-.27,1.4.27,0,.21-1,.43.86.17-.06.28L.5,19.82l0-.21,1-.44Z"/><path class="cls-1" d="M2.6,17.31H2.32l-.17.55.22.16-.09.29L1.07,17.4l.1-.33L2.69,17Zm-.67.38.12-.37H1.43Z"/><path class="cls-1" d="M1.64,15.8l.11-.26,1.32.55L3,16.35Z"/><path class="cls-1" d="M3.31,14.94l.25-.48.24.12-.38.74-1.26-.66.12-.25Z"/><path class="cls-1" d="M4.72,12.79a.7.7,0,0,1-.55-.15.72.72,0,0,1-.29-.49.74.74,0,0,1,.79-.83l0,.27a.42.42,0,0,0-.39.18.44.44,0,0,0-.1.34.49.49,0,0,0,.19.31.46.46,0,0,0,.35.1.42.42,0,0,0,.3-.19.4.4,0,0,0,.07-.41l.26-.11a.7.7,0,0,1-.11.69A.69.69,0,0,1,4.72,12.79Z"/><path class="cls-1" d="M6.06,11l.38-.4.19.19-.57.6-1-1,.19-.21Z"/><path class="cls-1" d="M7.18,10.16A.47.47,0,0,1,6.83,10L6.2,9.26l.22-.18L7,9.79a.27.27,0,0,0,.4-.35l-.61-.71L7,8.55l.63.72a.46.46,0,0,1,.12.38.62.62,0,0,1-.21.36A.6.6,0,0,1,7.18,10.16Z"/><path class="cls-1" d="M9.25,8.19a.37.37,0,0,1,.06.32.43.43,0,0,1-.19.27l-.5.35L7.81,8l.46-.32a.48.48,0,0,1,.32-.08.37.37,0,0,1,.27.17A.34.34,0,0,1,8.91,8,.34.34,0,0,1,9.25,8.19ZM8.19,8l.18.26.23-.16a.16.16,0,0,0,0-.22.16.16,0,0,0-.22,0ZM9,8.57a.17.17,0,0,0,0-.24.15.15,0,0,0-.23,0l-.27.18.19.28Z"/><path class="cls-1" d="M12.16,7,12,7.25l-.17-.07a.66.66,0,0,1-.3.27.58.58,0,0,1-.38,0,.41.41,0,0,1-.25-.23.47.47,0,0,1,0-.47.49.49,0,0,1-.16-.19.4.4,0,0,1,0-.32A.45.45,0,0,1,11,6.05a.46.46,0,0,1,.54.09l-.16.23a.21.21,0,0,0-.26-.07.16.16,0,0,0-.1.2c0,.07.09.11.2.15l.42.18a.75.75,0,0,0,0-.24l.27,0a.92.92,0,0,1,0,.33Zm-.56,0-.42-.18h0a.24.24,0,0,0,0,.23.21.21,0,0,0,.3.08A.37.37,0,0,0,11.6,7.08Z"/><path class="cls-1" d="M13.8,6.22,14,6a.34.34,0,0,0,.38.13c.15,0,.2-.12.18-.21a.11.11,0,0,0-.09-.09.79.79,0,0,0-.26,0,1,1,0,0,1-.32-.06.33.33,0,0,1-.2-.25.38.38,0,0,1,.05-.33A.54.54,0,0,1,14,5a.56.56,0,0,1,.57.19l-.19.19a.29.29,0,0,0-.32-.11c-.11,0-.16.1-.14.18a.14.14,0,0,0,.08.1l.23,0h.2l.1,0a.37.37,0,0,1,.16.09.39.39,0,0,1,.1.18.37.37,0,0,1-.06.34.59.59,0,0,1-.33.21A.57.57,0,0,1,13.8,6.22Z"/><path class="cls-1" d="M16,4.63a.59.59,0,0,1,.37.09.51.51,0,0,1,.19.32.47.47,0,0,1-.09.36.51.51,0,0,1-.33.19l-.25,0,.07.47-.28,0-.2-1.42Zm.1.69a.2.2,0,0,0,.18-.24A.21.21,0,0,0,16,4.9l-.25,0,.07.43Z"/><path class="cls-1" d="M18.21,5.88l-.09-.25-.57,0-.08.27h-.3l.44-1.45.35,0,.56,1.41Zm-.58-.49.39,0L17.8,4.8Z"/><rect class="cls-1" x="7.52" y="25.25" width="21.87" height="0.27"/></svg>