<svg id="Layer_1" data-name="Layer 1" xmlns="http://www.w3.org/2000/svg" viewBox="0 0 100 100"><defs><style>.cls-1{fill:#4d4d4d;}</style></defs><path class="cls-1" d="M83.64,30.66a.43.43,0,0,1-.42-.26A40.13,40.13,0,0,0,55.09,6.51.43.43,0,0,1,54.77,6a.44.44,0,0,1,.51-.32A41,41,0,0,1,84,30.07a.43.43,0,0,1-.23.56A.35.35,0,0,1,83.64,30.66Z"/><path class="cls-1" d="M76.47,74c1.82-1.5,2.67-3,2.59-4.44a.45.45,0,0,0-.4-.4,5.62,5.62,0,0,0-3.1,1c-3.23,1.94-5.76,4.74-8.2,7.46,0,0,0,0,0,0a20.48,20.48,0,0,1-3.81,3.29c3.16-3.62,5-8.87,4.8-12.42a1.51,1.51,0,0,0-.55-1.22,1.16,1.16,0,0,0-.81-.17h0a1.09,1.09,0,0,0-.3.07c-1.32.42-2,1.73-2.54,3a92,92,0,0,0-3.91,12.63A28.66,28.66,0,0,1,55,84.54c-.48.12-1,.22-1.44.32a11.47,11.47,0,0,0,2.63-2.07A12.75,12.75,0,0,0,58.76,78a10.59,10.59,0,0,0,.54-5.08c-.14-.69-.48-1.11-1-1.19h0a1.34,1.34,0,0,0-1,.32c-2.27,1.63-3.52,4.29-4.35,6.43-.21.53-.41,1.08-.61,1.62A25.09,25.09,0,0,1,50,85.32a.42.42,0,0,0,0,.1,51.87,51.87,0,0,1-9.26,0A40.17,40.17,0,0,1,6,48a.43.43,0,1,0-.85,0A41,41,0,0,0,40.58,86.27a55.7,55.7,0,0,0,7.67.14,38,38,0,0,0,5-.62L54.38,87c2.68,3,5.45,6.19,8.92,8.41a1.46,1.46,0,0,0,.82.28.84.84,0,0,0,.3-.08h0A1.08,1.08,0,0,0,65,94.51a8.2,8.2,0,0,0-2.8-5.44A20,20,0,0,0,57,85.87a11.6,11.6,0,0,0-1.42-.6A28.84,28.84,0,0,0,61.4,83.1h0a30.54,30.54,0,0,0,8.25,2.75,19.08,19.08,0,0,0,4.88.47,9.11,9.11,0,0,0,2.9-.61h0a.31.31,0,0,0,.16-.12h0a.52.52,0,0,0,.06-.13s0,0,0,0,0,0,0,0,0,0,0,0a.26.26,0,0,0,0-.15s0,0,0,0a.37.37,0,0,0-.13-.15h0c-3.56-2.56-9.28-3.76-14-3.07a21.13,21.13,0,0,0,4.27-3.53A27.34,27.34,0,0,0,76.47,74Zm-17.91-.21A10.32,10.32,0,0,1,58,77.7a12.12,12.12,0,0,1-2.36,4.52A10.36,10.36,0,0,1,53.44,84,16.51,16.51,0,0,0,58.56,73.79Zm-.87.17a15.68,15.68,0,0,1-4.55,9.13A18.53,18.53,0,0,0,55,79.57,57.92,57.92,0,0,1,57.69,74Zm-4.52,6.4c.2-.54.4-1.08.61-1.62a14.53,14.53,0,0,1,3.28-5.41,60.94,60.94,0,0,0-2.82,5.92A17.46,17.46,0,0,1,52.13,83C52.51,82.15,52.84,81.25,53.17,80.36Zm22.76-7a23.65,23.65,0,0,1-5.76,3.27L78,70.88A6.72,6.72,0,0,1,75.93,73.35ZM76,70.87a6.86,6.86,0,0,1,1.55-.72L70.94,75A26.29,26.29,0,0,1,76,70.87Zm-9.65-1.14a28.77,28.77,0,0,1-3.94,9.8ZM62.94,80.3c1.82-2.92,4.21-7.59,4.42-12.26a1.29,1.29,0,0,1,.12.49C67.69,71.89,65.93,76.87,62.94,80.3Zm1.93-9.85a6.93,6.93,0,0,1,.94-1.69l-2.93,7.3A58.37,58.37,0,0,1,64.87,70.45Zm-8.3,17.78a68.79,68.79,0,0,1,5.75,5.5A42.66,42.66,0,0,1,56.57,88.23Zm.51-.69c2.13,1.41,4.83,3.53,6.09,5.85A72.53,72.53,0,0,0,57.08,87.54Zm6.45,4.8A18.85,18.85,0,0,0,59,87.85a13.85,13.85,0,0,1,2.55,1.84A8.47,8.47,0,0,1,63.53,92.34ZM69.83,85a35.61,35.61,0,0,1-5.53-1.55,72.12,72.12,0,0,1,11.44,1.84A15.62,15.62,0,0,1,69.83,85Zm4.23-1a79.3,79.3,0,0,0-9.56-1.41A21.14,21.14,0,0,1,74.06,84.05Z"/><path class="cls-1" d="M22.91,36.86l-.54.55V47.76H20.55V36.86L22.37,35h1.82l7.27,7.28V35h1.81V47.76H31.46V44.69l-7.82-7.83Z"/><path class="cls-1" d="M48.15,35H50l1.82,1.82v10.9H50V44.13H41.44l-.56.56v3.07H39.06V44.13Zm.54,1.82-5.43,5.46H50V37.41l-.55-.55Z"/><path class="cls-1" d="M57.57,36.86V35h9.08v1.82H63v9.08h3.63v1.82H57.57V45.94h3.64V36.86Z"/><path class="cls-1" d="M74.26,35v10.9h9.08v1.82H72.44V35Z"/><path class="cls-1" d="M20.55,57.13a1.81,1.81,0,0,1,.14-.69,1.75,1.75,0,0,1,.95-.95,1.78,1.78,0,0,1,.7-.13,1.75,1.75,0,0,1,.51.07,1.78,1.78,0,0,1,.46.22,2.05,2.05,0,0,1,.38.34,1.54,1.54,0,0,1,.26.42l.05.11s0,.08,0,.11a.45.45,0,0,1-.11.27.36.36,0,0,1-.29.12.37.37,0,0,1-.36-.24,1,1,0,0,0-.36-.44.91.91,0,0,0-.55-.18,1,1,0,0,0-.39.08,1.1,1.1,0,0,0-.31.2,1.16,1.16,0,0,0-.22.31,1,1,0,0,0-.07.38v1.58a1,1,0,0,0,.08.38,1,1,0,0,0,.21.31,1,1,0,0,0,.32.21,1,1,0,0,0,.38.07.91.91,0,0,0,.55-.18,1,1,0,0,0,.36-.44.44.44,0,0,1,.16-.17.36.36,0,0,1,.49.06.4.4,0,0,1,.11.27.37.37,0,0,1,0,.15,1.82,1.82,0,0,1-.26.45,1.85,1.85,0,0,1-.38.36,2,2,0,0,1-.46.23,1.91,1.91,0,0,1-.54.08,1.66,1.66,0,0,1-.7-.15,1.8,1.8,0,0,1-.94-.94,1.58,1.58,0,0,1-.15-.69Z"/><path class="cls-1" d="M28.75,55.92a.4.4,0,0,1,.12-.29.39.39,0,0,1,.29-.11.35.35,0,0,1,.27.11.4.4,0,0,1,.12.29v3.62h2.36a.39.39,0,0,1,.4.39.4.4,0,0,1-.12.29.38.38,0,0,1-.28.11H29.16a.44.44,0,0,1-.29-.11.4.4,0,0,1-.12-.29Z"/><path class="cls-1" d="M36.89,55.92a.4.4,0,0,1,.12-.29.41.41,0,0,1,.56,0,.4.4,0,0,1,.12.29V58.7a.81.81,0,0,0,.08.38,1,1,0,0,0,.21.31,1.06,1.06,0,0,0,.31.21,1,1,0,0,0,.38.08,1,1,0,0,0,.38-.08.85.85,0,0,0,.31-.21,1,1,0,0,0,.21-.31,1,1,0,0,0,.08-.38V55.92a.4.4,0,0,1,.12-.29.36.36,0,0,1,.28-.11.37.37,0,0,1,.28.11.44.44,0,0,1,.11.29V58.7a1.73,1.73,0,0,1-.13.69,1.85,1.85,0,0,1-.38.56,2.06,2.06,0,0,1-.57.39,1.77,1.77,0,0,1-1.38,0,1.94,1.94,0,0,1-.95-1,1.74,1.74,0,0,1-.14-.69Z"/><path class="cls-1" d="M45.26,55.92a.4.4,0,0,1,.12-.29.36.36,0,0,1,.28-.11H47a.91.91,0,0,1,.41.08,1,1,0,0,1,.34.23.86.86,0,0,1,.23.33,1,1,0,0,1,.09.41,1.07,1.07,0,0,1-.13.51,1.68,1.68,0,0,1,.61.63,1.71,1.71,0,0,1,.23.87,1.56,1.56,0,0,1-.14.68,1.55,1.55,0,0,1-.38.56,1.76,1.76,0,0,1-.56.37,1.64,1.64,0,0,1-.69.14H45.66a.39.39,0,0,1-.28-.11.4.4,0,0,1-.12-.29Zm.79.39v.51h1a.24.24,0,0,0,.18-.07.24.24,0,0,0,0-.36.27.27,0,0,0-.19-.08Zm2,2.27a1,1,0,0,0-.08-.37,1,1,0,0,0-.21-.3,1.1,1.1,0,0,0-.31-.2,1.24,1.24,0,0,0-.39-.09h-1v1.92h1a1,1,0,0,0,.38-.08,1.1,1.1,0,0,0,.31-.2,1,1,0,0,0,.21-.31A.91.91,0,0,0,48,58.58Z"/><path class="cls-1" d="M61.2,56.64a.26.26,0,0,0,.07.17.25.25,0,0,0,.16.08h.93a.43.43,0,0,1,.14-.23.37.37,0,0,1,.25-.09.38.38,0,0,1,.25.09.43.43,0,0,1,.14.23.52.52,0,0,1,.22.14.38.38,0,0,1,.09.25.37.37,0,0,1-.09.25.38.38,0,0,1-.22.13v1a1.7,1.7,0,0,1-.13.67,1.63,1.63,0,0,1-.89.92,1.45,1.45,0,0,1-.66.14,1.56,1.56,0,0,1-.68-.14,1.9,1.9,0,0,1-.55-.37,1.93,1.93,0,0,1-.38-.55,1.71,1.71,0,0,1-.14-.67,1.65,1.65,0,0,1,.23-.86,2,2,0,0,1,.6-.63l-.09-.23a1.24,1.24,0,0,1,0-.27.87.87,0,0,1,.08-.4,1.14,1.14,0,0,1,.56-.56,1.07,1.07,0,0,1,.41-.08h.31a.34.34,0,0,1,.27.12.35.35,0,0,1,.12.28.38.38,0,0,1-.12.28.37.37,0,0,1-.27.11h-.31a.34.34,0,0,0-.19.07A.25.25,0,0,0,61.2,56.64Zm.26,1a.9.9,0,0,0-.37.07,1.08,1.08,0,0,0-.3.21,1,1,0,0,0-.21.31.87.87,0,0,0-.08.37,1,1,0,0,0,.07.36.81.81,0,0,0,.21.3,1,1,0,0,0,.31.21.9.9,0,0,0,.37.07.86.86,0,0,0,.36-.07,1,1,0,0,0,.29-.21.75.75,0,0,0,.18-.3,1,1,0,0,0,.06-.36v-1Z"/><path class="cls-1" d="M75.16,59a.91.91,0,0,0,.36.4,1.05,1.05,0,0,0,.6.16,1.5,1.5,0,0,0,.37,0,1.13,1.13,0,0,0,.32-.13.77.77,0,0,0,.22-.22.53.53,0,0,0,.08-.32.57.57,0,0,0-.08-.32.77.77,0,0,0-.22-.22,1.25,1.25,0,0,0-.31-.12,2.33,2.33,0,0,0-.38,0,2.7,2.7,0,0,1-.65-.07,1.73,1.73,0,0,1-.51-.25,1.11,1.11,0,0,1-.33-.41,1.22,1.22,0,0,1-.13-.59,1.25,1.25,0,0,1,.12-.56,1.27,1.27,0,0,1,.33-.43,1.53,1.53,0,0,1,.51-.26,2.29,2.29,0,0,1,.66-.09h.17a1.77,1.77,0,0,1,.39.09,1.74,1.74,0,0,1,.46.22,1.22,1.22,0,0,1,.4.44.46.46,0,0,1,0,.1.5.5,0,0,1,0,.12.4.4,0,0,1-.11.26.34.34,0,0,1-.28.14.58.58,0,0,1-.18,0,.35.35,0,0,1-.13-.11h0a1.66,1.66,0,0,0-.33-.32.8.8,0,0,0-.47-.12,1,1,0,0,0-.64.16.51.51,0,0,0-.18.38.42.42,0,0,0,.24.41,1.28,1.28,0,0,0,.58.11,2.56,2.56,0,0,1,.69.1,1.67,1.67,0,0,1,.58.29,1.3,1.3,0,0,1,.38.46,1.35,1.35,0,0,1,.14.65,1.44,1.44,0,0,1-.14.67,1.61,1.61,0,0,1-.39.47,2.08,2.08,0,0,1-.58.28,2.71,2.71,0,0,1-.71.09l-.28,0a1.64,1.64,0,0,1-.47-.14,2,2,0,0,1-.51-.32,1.73,1.73,0,0,1-.44-.62.22.22,0,0,1,0-.1.38.38,0,0,1,0-.1.37.37,0,0,1,.11-.28.34.34,0,0,1,.27-.12.4.4,0,0,1,.26.1.53.53,0,0,1,.17.25Z"/><path class="cls-1" d="M82.67,55.92a.4.4,0,0,1,.12-.29.37.37,0,0,1,.28-.11h1.38a1.8,1.8,0,0,1,.69.13,2,2,0,0,1,.56.38,1.75,1.75,0,0,1,.38.55,1.61,1.61,0,0,1,.14.69,1.72,1.72,0,0,1-.13.68,1.77,1.77,0,0,1-1,.94,1.81,1.81,0,0,1-.69.14h-1v.9a.38.38,0,0,1-.39.4.41.41,0,0,1-.28-.11.4.4,0,0,1-.12-.29Zm.79.39v1.91h1a1,1,0,0,0,.38-.07,1.1,1.1,0,0,0,.31-.2,1,1,0,0,0,.29-.68.91.91,0,0,0-.08-.37,1,1,0,0,0-.21-.31,1.27,1.27,0,0,0-.31-.2,1,1,0,0,0-.38-.08Z"/><path class="cls-1" d="M92.5,55.73a.38.38,0,0,1,.36-.24h.08l.08,0a.43.43,0,0,1,.21.21L95,59.79a.34.34,0,0,1,0,.15.4.4,0,0,1-.11.27.34.34,0,0,1-.29.13.37.37,0,0,1-.36-.24L93.79,59H91.94c-.08.18-.15.36-.23.53s-.15.35-.22.53a.45.45,0,0,1-.15.18.42.42,0,0,1-.21.06.34.34,0,0,1-.29-.13.4.4,0,0,1-.11-.27.17.17,0,0,1,0-.07.19.19,0,0,1,0-.08Zm.36,1.16-.15.34a3.09,3.09,0,0,1-.14.32c0,.11-.1.22-.14.33l-.16.36h1.18Z"/><path class="cls-1" d="M8.19,39.06,5,38.43l.12-.62,2.39-.89L5.38,36.5l.12-.6,3.19.63-.13.64-2.33.88,2.08.41Z"/><path class="cls-1" d="M10.09,31.83l-.22.68-.79,0-.4,1.24.61.49-.21.66-2.7-2.22.21-.66Zm-1.6.76-1.28,0,1,.79Z"/><path class="cls-1" d="M10.72,30.35l-3-1.3L8,28.44l3,1.3Z"/><path class="cls-1" d="M11.81,28,9,26.44l.31-.57,2.35,1.28.79-1.43.48.26Z"/><path class="cls-1" d="M15.64,20.09l.56-.37a1.43,1.43,0,0,1,.3.87A1.53,1.53,0,0,1,15.15,22a1.72,1.72,0,0,1-1.21-.44,1.73,1.73,0,0,1-.71-1.12,1.42,1.42,0,0,1,.34-1.14,1.38,1.38,0,0,1,.89-.53,1.21,1.21,0,0,1,.67.12l-.29.6a.68.68,0,0,0-.46-.06.7.7,0,0,0-.39.25.76.76,0,0,0-.17.62,1.29,1.29,0,0,0,.51.71,1.47,1.47,0,0,0,.82.38.73.73,0,0,0,.57-.29.63.63,0,0,0,.15-.45A.9.9,0,0,0,15.64,20.09Z"/><path class="cls-1" d="M18.23,19,16,16.68l.47-.46,1.88,1.91L19.48,17l.38.39Z"/><path class="cls-1" d="M19.17,13.66l.52-.4,1.08,1.39a3.35,3.35,0,0,0,.35.41.55.55,0,0,0,.36.13A.74.74,0,0,0,21.9,15a.73.73,0,0,0,.26-.35.47.47,0,0,0,0-.33,3.09,3.09,0,0,0-.32-.45l-1.1-1.42.51-.4,1.05,1.34a3.8,3.8,0,0,1,.47.69.91.91,0,0,1,.1.44,1,1,0,0,1-.14.45,1.79,1.79,0,0,1-.43.46,1.77,1.77,0,0,1-.63.35.94.94,0,0,1-.47,0,.86.86,0,0,1-.36-.17,3.53,3.53,0,0,1-.56-.61Z"/><path class="cls-1" d="M23.16,10.73l1.11-.67a4.52,4.52,0,0,1,.51-.27.76.76,0,0,1,.36-.06.88.88,0,0,1,.35.1.86.86,0,0,1,.29.28.88.88,0,0,1,.11.42.81.81,0,0,1-.14.42.83.83,0,0,1,.54,0,.85.85,0,0,1,.39.34,1,1,0,0,1,.14.42.93.93,0,0,1-.07.44,1,1,0,0,1-.3.36c-.09.06-.31.21-.67.42l-1,.58Zm.84.12.39.65.36-.22.41-.26a.41.41,0,0,0,.16-.24.31.31,0,0,0,0-.26.36.36,0,0,0-.2-.17.33.33,0,0,0-.27,0l-.49.28ZM24.66,12l.45.75.52-.32a2.16,2.16,0,0,0,.38-.25.43.43,0,0,0,.14-.23.42.42,0,0,0-.07-.28.37.37,0,0,0-.19-.18.42.42,0,0,0-.25,0,2.13,2.13,0,0,0-.52.26Z"/><path class="cls-1" d="M33.7,8.85l-.19.58a2.1,2.1,0,0,1-.62-.16,1.72,1.72,0,0,1-.31.39,1.54,1.54,0,0,1-.46.26,1.15,1.15,0,0,1-1,0,.86.86,0,0,1-.43-.49.92.92,0,0,1,0-.59,1.51,1.51,0,0,1,.37-.6A1.52,1.52,0,0,1,30.7,8a.84.84,0,0,1-.2-.29.63.63,0,0,1,.05-.55,1.13,1.13,0,0,1,1.25-.45.67.67,0,0,1,.41.41.73.73,0,0,1,0,.39,1.74,1.74,0,0,1-.31.54l.63.41a1.33,1.33,0,0,0,0-.4L33.13,8a3.86,3.86,0,0,1,0,.46.92.92,0,0,1,0,.26,1.82,1.82,0,0,0,.33.11A1.08,1.08,0,0,0,33.7,8.85ZM31.5,7.78l.11-.18a.38.38,0,0,0,.08-.33.25.25,0,0,0-.16-.16.27.27,0,0,0-.25,0,.32.32,0,0,0-.2.15.26.26,0,0,0,0,.19.53.53,0,0,0,.23.21Zm0,.72a.76.76,0,0,0-.21.35.53.53,0,0,0,0,.33.43.43,0,0,0,.24.27.47.47,0,0,0,.37,0,.82.82,0,0,0,.25-.16A1.13,1.13,0,0,0,32.37,9Z"/><path class="cls-1" d="M37.62,7.16,38.24,7a.72.72,0,0,0,.31.43.66.66,0,0,0,.49.07.68.68,0,0,0,.45-.21A.39.39,0,0,0,39.6,7a.39.39,0,0,0-.1-.19.58.58,0,0,0-.26-.1l-.54,0a1.68,1.68,0,0,1-.78-.2.86.86,0,0,1-.41-.59.92.92,0,0,1,.07-.49,1,1,0,0,1,.34-.39,1.74,1.74,0,0,1,.62-.21,1.36,1.36,0,0,1,1,.11,1,1,0,0,1,.44.65l-.65.14a.56.56,0,0,0-.23-.33.73.73,0,0,0-.43,0,.82.82,0,0,0-.42.19.23.23,0,0,0-.07.22.22.22,0,0,0,.13.18,1.8,1.8,0,0,0,.63.11,3.22,3.22,0,0,1,.73.12.82.82,0,0,1,.41.27.89.89,0,0,1,.21.49.93.93,0,0,1-.44,1,1.87,1.87,0,0,1-.68.23,1.35,1.35,0,0,1-1-.13A1.21,1.21,0,0,1,37.62,7.16Z"/><path class="cls-1" d="M42.22,7.58l-.16-3.25,1,0a3.52,3.52,0,0,1,.78,0,.82.82,0,0,1,.48.3.93.93,0,0,1,.22.62,1,1,0,0,1-.08.51.78.78,0,0,1-.26.33,1,1,0,0,1-.33.17,3.32,3.32,0,0,1-.68.08l-.43,0,.06,1.23Zm.52-2.73,0,.92.35,0a1.67,1.67,0,0,0,.52-.07.48.48,0,0,0,.2-.17.55.55,0,0,0,.06-.26A.48.48,0,0,0,43.8,5a.49.49,0,0,0-.27-.13h-.47Z"/><path class="cls-1" d="M49.12,7.63l-.71,0-.25-.75-1.29-.08-.31.72-.7,0,1.45-3.17.7,0ZM48,6.28l-.38-1.23L47.1,6.23Z"/><rect class="cls-1" x="20.55" y="50.57" width="48.69" height="0.6"/></svg>